{
  "accessors": [
    {
      "bufferView": 2,
      "componentType": 5126,
      "count": 1235,
      "max": [
        0.04020800068974495,
        1.066756010055542,
        0.036260999739170074
      ],
      "min": [
        -0.0030239999759942293,
        -0.11025500297546387,
        0.020702000707387924
      ],
      "type": "VEC3"
    },
    {
      "bufferView": 2,
      "byteOffset": 14820,
      "componentType": 5126,
      "count": 1235,
      "max": [
        0.999997615814209,
        0.9999955892562866,
        1.0
      ],
      "min": [
        -0.999997615814209,
        -0.9999984502792358,
        -1.0
      ],
      "type": "VEC3"
    },
    {
      "bufferView": 1,
      "componentType": 5126,
      "count": 1235,
      "max": [
        1.0,
        1.0
      ],
      "min": [
        0.0,
        0.0
      ],
      "type": "VEC2"
    },
    {
      "bufferView": 0,
      "componentType": 5125,
      "count": 6624,
      "type": "SCALAR"
    },
    {
      "bufferView": 2,
      "byteOffset": 29640,
      "componentType": 5126,
      "count": 1326,
      "max": [
        -0.004412999842315912,
        0.975121021270752,
        0.03889299929141998
      ],
      "min": [
        -0.040557000786066055,
        -0.10116899758577347,
        0.020806999877095222
      ],
      "type": "VEC3"
    },
    {
      "bufferView": 2,
      "byteOffset": 45552,
      "componentType": 5126,
      "count": 1326,
      "max": [
        1.0,
        0.9997372031211853,
        0.9996076226234436
      ],
      "min": [
        -1.0,
        -0.9999136924743652,
        -0.999858021736145
      ],
      "type": "VEC3"
    },
    {
      "bufferView": 1,
      "byteOffset": 9880,
      "componentType": 5126,
      "count": 1326,
      "max": [
        1.0,
        1.0
      ],
      "min": [
        0.0,
        0.0
      ],
      "type": "VEC2"
    },
    {
      "bufferView": 0,
      "byteOffset": 26496,
      "componentType": 5125,
      "count": 7128,
      "type": "SCALAR"
    },
    {
      "bufferView": 2,
      "byteOffset": 61464,
      "componentType": 5126,
      "count": 36732,
      "max": [
        0.22607900202274323,
        1.1024980545043945,
        0.05209999904036522
      ],
      "min": [
        -0.2282389998435974,
        -0.30919599533081055,
        -0.03411500155925751
      ],
      "type": "VEC3"
    },
    {
      "bufferView": 2,
      "byteOffset": 502248,
      "componentType": 5126,
      "count": 36732,
      "max": [
        1.0,
        1.0,
        1.0
      ],
      "min": [
        -1.0,
        -1.0,
        -1.0
      ],
      "type": "VEC3"
    },
    {
      "bufferView": 3,
      "componentType": 5126,
      "count": 36732,
      "max": [
        1.0,
        1.0,
        1.0,
        1.0
      ],
      "min": [
        -1.0,
        -1.0,
        -1.0,
        -1.0
      ],
      "type": "VEC4"
    },
    {
      "bufferView": 1,
      "byteOffset": 20488,
      "componentType": 5126,
      "count": 36732,
      "max": [
        0.9949319958686829,
        0.877685010433197
      ],
      "min": [
        0.0049959998577833176,
        0.004621999803930521
      ],
      "type": "VEC2"
    },
    {
      "bufferView": 0,
      "byteOffset": 55008,
      "componentType": 5125,
      "count": 183300,
      "type": "SCALAR"
    }
  ],
  "asset": {
    "extras": {
      "author": "varin (https://sketchfab.com/Varin)",
      "license": "CC-BY-4.0 (http://creativecommons.org/licenses/by/4.0/)",
      "source": "https://sketchfab.com/3d-models/stratocaster-2a29975b708b4106a84d5b51e3ede608",
      "title": "Stratocaster"
    },
    "generator": "Sketchfab-15.77.0",
    "version": "2.0"
  },
  "bufferViews": [
    {
      "buffer": 0,
      "byteLength": 788208,
      "name": "floatBufferViews",
      "target": 34963
    },
    {
      "buffer": 0,
      "byteLength": 314344,
      "byteOffset": 788208,
      "byteStride": 8,
      "name": "floatBufferViews",
      "target": 34962
    },
    {
      "buffer": 0,
      "byteLength": 943032,
      "byteOffset": 1102552,
      "byteStride": 12,
      "name": "floatBufferViews",
      "target": 34962
    },
    {
      "buffer": 0,
      "byteLength": 587712,
      "byteOffset": 2045584,
      "byteStride": 16,
      "name": "floatBufferViews",
      "target": 34962
    }
  ],
  "buffers": [
    {
      "byteLength": 2633296,
      "uri": "scene.bin"
    }
  ],
  "images": [
    {
      "uri": "textures/stratLow_baseColor.png"
    },
    {
      "uri": "textures/stratLow_metallicRoughness.png"
    },
    {
      "uri": "textures/stratLow_normal.png"
    }
  ],
  "materials": [
    {
      "doubleSided": true,
      "name": "metals_shad.002",
      "pbrMetallicRoughness": {
        "baseColorFactor": [
          0.43826,
          0.43826,
          0.43826,
          1.0
        ],
        "metallicFactor": 0.0
      }
    },
    {
      "doubleSided": true,
      "name": "metals_shad.003",
      "pbrMetallicRoughness": {
        "baseColorFactor": [
          0.308039,
          0.223132,
          0.118536,
          1.0
        ],
        "metallicFactor": 0.0
      }
    },
    {
      "doubleSided": true,
      "name": "stratLow",
      "normalTexture": {
        "index": 2
      },
      "pbrMetallicRoughness": {
        "baseColorTexture": {
          "index": 0
        },
        "metallicRoughnessTexture": {
          "index": 1
        }
      }
    }
  ],
  "meshes": [
    {
      "name": "Object_0",
      "primitives": [
        {
          "attributes": {
            "NORMAL": 1,
            "POSITION": 0,
            "TEXCOORD_0": 2
          },
          "indices": 3,
          "material": 0,
          "mode": 4
        }
      ]
    },
    {
      "name": "Object_1",
      "primitives": [
        {
          "attributes": {
            "NORMAL": 5,
            "POSITION": 4,
            "TEXCOORD_0": 6
          },
          "indices": 7,
          "material": 1,
          "mode": 4
        }
      ]
    },
    {
      "name": "Object_2",
      "primitives": [
        {
          "attributes": {
            "NORMAL": 9,
            "POSITION": 8,
            "TANGENT": 10,
            "TEXCOORD_0": 11
          },
          "indices": 12,
          "material": 2,
          "mode": 4
        }
      ]
    }
  ],
  "nodes": [
    {
      "children": [
        1
      ],
      "matrix": [
        0.8811418414115906,
        0.0,
        0.0,
        0.0,
        0.0,
        1.9565279205915122e-16,
        -0.8811418414115906,
        0.0,
        0.0,
        0.8811418414115906,
        1.9565279205915122e-16,
        0.0,
        0.0,
        0.0,
        0.0,
        1.0
      ],
      "name": "Sketchfab_model"
    },
    {
      "children": [
        2,
        3,
        4
      ],
      "name": "stratoUp.obj.cleaner.materialmerger.gles"
    },
    {
      "mesh": 0,
      "name": "Object_2"
    },
    {
      "mesh": 1,
      "name": "Object_3"
    },
    {
      "mesh": 2,
      "name": "Object_4"
    }
  ],
  "samplers": [
    {
      "magFilter": 9729,
      "minFilter": 9987,
      "wrapS": 10497,
      "wrapT": 10497
    }
  ],
  "scene": 0,
  "scenes": [
    {
      "name": "Sketchfab_Scene",
      "nodes": [
        0
      ]
    }
  ],
  "textures": [
    {
      "sampler": 0,
      "source": 0
    },
    {
      "sampler": 0,
      "source": 1
    },
    {
      "sampler": 0,
      "source": 2
    }
  ]
}
